<svg id="frozen" xmlns="http://www.w3.org/2000/svg" width="16" height="16" viewBox="0 0 16 16">
  <path id="Vector" d="M0,3.667V0" transform="translate(8 2)" fill="none" stroke="#606a82" stroke-linecap="round" stroke-linejoin="round" stroke-width="1.6"/>
  <path id="Vector-2" data-name="Vector" d="M0,3.667V0" transform="translate(8 10.333)" fill="none" stroke="#606a82" stroke-linecap="round" stroke-linejoin="round" stroke-width="1.6"/>
  <path id="Vector-3" data-name="Vector" d="M0,0H2.667" transform="translate(6.667 2)" fill="none" stroke="#606a82" stroke-linecap="round" stroke-linejoin="round" stroke-width="1.6"/>
  <path id="Vector-4" data-name="Vector" d="M0,0H2.667" transform="translate(6.667 14)" fill="none" stroke="#606a82" stroke-linecap="round" stroke-linejoin="round" stroke-width="1.6"/>
  <path id="Vector-5" data-name="Vector" d="M3.173,1.833,0,0" transform="translate(2.807 5)" fill="none" stroke="#606a82" stroke-linecap="round" stroke-linejoin="round" stroke-width="1.6"/>
  <path id="Vector-6" data-name="Vector" d="M3.173,1.833,0,0" transform="translate(10.02 9.167)" fill="none" stroke="#606a82" stroke-linecap="round" stroke-linejoin="round" stroke-width="1.6"/>
  <path id="Vector-7" data-name="Vector" d="M0,2.307,1.333,0" transform="translate(2.14 3.846)" fill="none" stroke="#606a82" stroke-linecap="round" stroke-linejoin="round" stroke-width="1.6"/>
  <path id="Vector-8" data-name="Vector" d="M0,2.307,1.333,0" transform="translate(12.527 9.846)" fill="none" stroke="#606a82" stroke-linecap="round" stroke-linejoin="round" stroke-width="1.6"/>
  <path id="Vector-9" data-name="Vector" d="M4.667,2.333A2.333,2.333,0,0,1,.313,3.5a2.333,2.333,0,1,1,4.04-2.333A2.314,2.314,0,0,1,4.667,2.333Z" transform="translate(5.667 5.667)" fill="none" stroke="#606a82" stroke-linecap="round" stroke-linejoin="round" stroke-width="1.6"/>
  <path id="Vector-10" data-name="Vector" d="M3.173,0,0,1.833" transform="translate(10.02 5)" fill="none" stroke="#606a82" stroke-linecap="round" stroke-linejoin="round" stroke-width="1.6"/>
  <path id="Vector-11" data-name="Vector" d="M3.173,0,0,1.833" transform="translate(2.807 9.167)" fill="none" stroke="#606a82" stroke-linecap="round" stroke-linejoin="round" stroke-width="1.6"/>
  <path id="Vector-12" data-name="Vector" d="M1.333,2.307,0,0" transform="translate(12.527 3.846)" fill="none" stroke="#606a82" stroke-linecap="round" stroke-linejoin="round" stroke-width="1.6"/>
  <path id="Vector-13" data-name="Vector" d="M1.333,2.307,0,0" transform="translate(2.14 9.846)" fill="none" stroke="#606a82" stroke-linecap="round" stroke-linejoin="round" stroke-width="1.6"/>
  <path id="Vector-14" data-name="Vector" d="M0,0H16V16H0Z" fill="none" opacity="0"/>
</svg>
