<svg id="Seal" xmlns="http://www.w3.org/2000/svg" width="69.956" height="70.276" viewBox="0 0 69.956 70.276">
  <path id="Trazado_13941" data-name="Trazado 13941" d="M70.154,36.618A33.577,33.577,0,1,1,36.577,3,33.6,33.6,0,0,1,70.154,36.618" transform="translate(-1.583 -1.347)" fill="#fff"/>
  <path id="Trazado_13942" data-name="Trazado 13942" d="M34.962,1.387A33.617,33.617,0,1,1,1.385,35,33.6,33.6,0,0,1,34.962,1.387m0-1.387A35,35,0,1,0,69.924,35,35.023,35.023,0,0,0,34.962,0" transform="translate(0.032 0.267)" fill="#150a44"/>
  <path id="Trazado_13943" data-name="Trazado 13943" d="M72.143,50.6A21.573,21.573,0,1,1,50.57,29,21.586,21.586,0,0,1,72.143,50.6" transform="translate(-15.576 -15.325)" fill="#fff"/>
  <path id="Trazado_13944" data-name="Trazado 13944" d="M50.57,30.384A20.212,20.212,0,1,1,30.382,50.6,20.223,20.223,0,0,1,50.57,30.384m0-1.387A21.6,21.6,0,1,0,72.143,50.6,21.586,21.586,0,0,0,50.57,29" transform="translate(-15.576 -15.325)" fill="#00bb19"/>
  <path id="Trazado_13945" data-name="Trazado 13945" d="M15.6,62.962a1.884,1.884,0,0,1-.767.686,1.693,1.693,0,0,1-1.035.128l.293-1.5a.738.738,0,0,0,.534-.127.729.729,0,0,0,.266-.462.787.787,0,0,0-.048-.523.49.49,0,0,0-.364-.26.481.481,0,0,0-.383.075,1.192,1.192,0,0,0-.3.31,5.8,5.8,0,0,0-.323.558,6.687,6.687,0,0,1-.525.848,1.716,1.716,0,0,1-.63.511,1.447,1.447,0,0,1-.932.084,1.546,1.546,0,0,1-1.151-.834,2.46,2.46,0,0,1-.16-1.616,2.486,2.486,0,0,1,.759-1.454,1.67,1.67,0,0,1,1.4-.379l-.3,1.527a.608.608,0,0,0-.481.121.741.741,0,0,0-.256.455.622.622,0,0,0,.056.439.533.533,0,0,0,.849.055,4.4,4.4,0,0,0,.5-.76A7.759,7.759,0,0,1,13.142,60a1.769,1.769,0,0,1,.621-.509,1.368,1.368,0,0,1,.9-.09,1.691,1.691,0,0,1,.85.427,1.8,1.8,0,0,1,.5.856,2.551,2.551,0,0,1,.018,1.177,3.035,3.035,0,0,1-.428,1.1" transform="translate(-5.358 -31.447)" fill="#150a44"/>
  <path id="Trazado_13946" data-name="Trazado 13946" d="M14.018,49.813l1.108.442.711-1.79,1.031.411-.711,1.79,1.2.478.8-2.024,1.069.426L17.9,52.905l-5.479-2.182,1.335-3.36,1.069.426Z" transform="translate(-6.652 -25.2)" fill="#150a44"/>
  <path id="Trazado_13947" data-name="Trazado 13947" d="M21.8,37.185a1.073,1.073,0,0,0-.628.133,1.5,1.5,0,0,0-.518.5A1.445,1.445,0,0,0,20.42,39a2.024,2.024,0,0,0,2.089,1.365,1.608,1.608,0,0,0,1.054-.759,1.467,1.467,0,0,0,.271-.895,1.524,1.524,0,0,0-.348-.873l-1.009,1.52-.881-.586,1.73-2.606,1.112.74a2.813,2.813,0,0,1,.532,1.006,2.864,2.864,0,0,1,.086,1.224,3.007,3.007,0,0,1-.5,1.265,3.147,3.147,0,0,1-1.181,1.087,2.724,2.724,0,0,1-1.475.3,3.357,3.357,0,0,1-2.592-1.725,2.726,2.726,0,0,1-.3-1.477,3.126,3.126,0,0,1,.542-1.508,3.025,3.025,0,0,1,1.414-1.2,2.417,2.417,0,0,1,1.715-.015Z" transform="translate(-10.196 -18.935)" fill="#150a44"/>
  <path id="Trazado_13948" data-name="Trazado 13948" d="M27.424,25.769l2.408,2.581a1.164,1.164,0,0,0,.746.418.978.978,0,0,0,.754-.313,1.014,1.014,0,0,0,.37-.737,1.145,1.145,0,0,0-.36-.78l-2.407-2.582,1.05-.981,2.4,2.576a2.5,2.5,0,0,1,.666,1.207,2.159,2.159,0,0,1-.1,1.22,2.853,2.853,0,0,1-.735,1.067,2.77,2.77,0,0,1-1.1.652,2.03,2.03,0,0,1-1.2-.008,2.629,2.629,0,0,1-1.147-.762l-2.4-2.575Z" transform="translate(-14.164 -12.302)" fill="#150a44"/>
  <path id="Trazado_13949" data-name="Trazado 13949" d="M43.244,22.5l-2.191-1.29-.3.176L41.892,23.3l-1.235.734-3.008-5.077,2.073-1.232a2.659,2.659,0,0,1,1.147-.4,1.679,1.679,0,0,1,.973.2,1.866,1.866,0,0,1,.692.689,1.76,1.76,0,0,1,.25,1.074,1.791,1.791,0,0,1-.507,1.064l2.362,1.315Zm-3.006-1.99L41,20.055a.814.814,0,0,0,.41-.469.732.732,0,0,0-.108-.571.708.708,0,0,0-.44-.355.815.815,0,0,0-.608.136l-.766.455Z" transform="translate(-20.233 -9.048)" fill="#150a44"/>
  <path id="Trazado_13950" data-name="Trazado 13950" d="M53.432,17.679a2.889,2.889,0,0,1-1.374-.7,3.182,3.182,0,0,1-.933-2.972,2.9,2.9,0,0,1,.727-1.357,3.2,3.2,0,0,1,2.909-.916,2.834,2.834,0,0,1,1.364.7,3.226,3.226,0,0,1,.93,2.974,2.879,2.879,0,0,1-.718,1.359,3.191,3.191,0,0,1-2.9.914m2.114-2.129a1.79,1.79,0,0,0,.031-1.315,1.784,1.784,0,0,0-.779-1.064,1.452,1.452,0,0,0-1.218-.106,1.475,1.475,0,0,0-.948.783,1.785,1.785,0,0,0-.029,1.323,1.782,1.782,0,0,0,.778,1.064,1.463,1.463,0,0,0,1.226.1,1.449,1.449,0,0,0,.936-.789" transform="translate(-27.446 -6.008)" fill="#150a44"/>
  <path id="Trazado_13951" data-name="Trazado 13951" d="M74.336,9.466A2.638,2.638,0,0,1,75.4,10.522a3.053,3.053,0,0,1,.357,1.549,3.061,3.061,0,0,1-.407,1.533,2.629,2.629,0,0,1-1.1,1.025,3.426,3.426,0,0,1-1.631.343l-2.209-.036.1-5.9,2.209.036a3.427,3.427,0,0,1,1.623.4M73.82,13.3a1.687,1.687,0,0,0,.474-1.254A1.575,1.575,0,0,0,72.6,10.3l-.68-.011-.055,3.431.68.011A1.732,1.732,0,0,0,73.82,13.3" transform="translate(-37.865 -4.591)" fill="#150a44"/>
  <path id="Trazado_13952" data-name="Trazado 13952" d="M85.388,11.165l-.243,1.169,1.883.392L86.8,13.813l-1.883-.392-.263,1.268,2.13.443-.234,1.128-3.537-.736,1.2-5.78,3.536.736-.235,1.128Z" transform="translate(-44.651 -4.972)" fill="#150a44"/>
  <path id="Trazado_13953" data-name="Trazado 13953" d="M104.836,16.305l-4.566,4.283-1.6-.827.851-6.206,1.358.7-.747,4.631,3.35-3.283Z" transform="translate(-53.079 -7.022)" fill="#150a44"/>
  <rect id="Rectángulo_3776" data-name="Rectángulo 3776" width="5.9" height="1.433" transform="translate(49.259 14.879) rotate(-53.293)" fill="#150a44"/>
  <path id="Trazado_13954" data-name="Trazado 13954" d="M113.6,32.986,112.074,31.4l-1,.469-1.043-1.085,5.727-2.557,1.154,1.2L114.15,35.06l-1.055-1.1Zm.542-1.037,1.048-2.026-2.056.978Z" transform="translate(-59.194 -14.911)" fill="#150a44"/>
  <path id="Trazado_13955" data-name="Trazado 13955" d="M126.791,42.287l-3.408,2.126a1.9,1.9,0,0,1-1.5.314,1.957,1.957,0,0,1-1.176-.936,2.1,2.1,0,0,1-.342-1.551,1.968,1.968,0,0,1,.978-1.274l.755,1.214a.878.878,0,0,0-.394.424.529.529,0,0,0,.071.471.5.5,0,0,0,.356.254.735.735,0,0,0,.489-.136l3.407-2.127Z" transform="translate(-64.738 -21.761)" fill="#150a44"/>
  <path id="Trazado_13956" data-name="Trazado 13956" d="M129.288,49.345l-1.108.442.711,1.789-1.031.411-.711-1.789-1.2.478.8,2.024-1.069.426-1.335-3.36,5.479-2.183,1.335,3.36-1.069.426Z" transform="translate(-66.898 -25.318)" fill="#150a44"/>
  <path id="Trazado_13957" data-name="Trazado 13957" d="M128.356,60.728a1.887,1.887,0,0,1,.453-.924,1.7,1.7,0,0,1,.911-.508l.293,1.5a.744.744,0,0,0-.447.319.731.731,0,0,0-.073.528.8.8,0,0,0,.241.467.493.493,0,0,0,.436.1A.485.485,0,0,0,130.5,62a1.187,1.187,0,0,0,.162-.4,5.83,5.83,0,0,0,.09-.638,6.694,6.694,0,0,1,.167-.984,1.725,1.725,0,0,1,.392-.711,1.449,1.449,0,0,1,.832-.428,1.543,1.543,0,0,1,1.38.338,2.45,2.45,0,0,1,.755,1.438,2.483,2.483,0,0,1-.156,1.633,1.671,1.671,0,0,1-1.152.876l-.3-1.527a.609.609,0,0,0,.4-.293.739.739,0,0,0,.066-.518.621.621,0,0,0-.217-.386.533.533,0,0,0-.808.269,4.416,4.416,0,0,0-.177.892,7.764,7.764,0,0,1-.185.983,1.771,1.771,0,0,1-.384.7,1.369,1.369,0,0,1-.8.422,1.685,1.685,0,0,1-.948-.076,1.791,1.791,0,0,1-.785-.6,2.55,2.55,0,0,1-.46-1.084,3.038,3.038,0,0,1-.016-1.179" transform="translate(-69.029 -31.351)" fill="#150a44"/>
  <rect id="Rectángulo_3777" data-name="Rectángulo 3777" width="5.934" height="1.445" transform="matrix(0.969, -0.246, 0.246, 0.969, 5.209, 42.121)" fill="#00bb19"/>
  <path id="Trazado_13958" data-name="Trazado 13958" d="M14.985,99.2,14.4,97.88l2.373-3.694-3.349,1.479-.584-1.325,5.43-2.4.584,1.324-2.389,3.7,3.364-1.486.584,1.324Z" transform="translate(-6.88 -49.171)" fill="#00bb19"/>
  <path id="Trazado_13959" data-name="Trazado 13959" d="M24.48,105.539a2.717,2.717,0,0,1,1.5.188,3.082,3.082,0,0,1,1.244.991,2.953,2.953,0,0,1,.659,1.777,2.685,2.685,0,0,1-.594,1.727l-.968-1.262a1.287,1.287,0,0,0,.143-.745,1.415,1.415,0,0,0-.3-.706,1.379,1.379,0,0,0-1.027-.576,2.071,2.071,0,0,0-1.971,1.515,1.383,1.383,0,0,0,.29,1.143,1.415,1.415,0,0,0,.6.468,1.28,1.28,0,0,0,.755.055l.968,1.262a2.652,2.652,0,0,1-1.816.126,2.967,2.967,0,0,1-1.541-1.1,3.088,3.088,0,0,1-.634-1.46,2.73,2.73,0,0,1,.2-1.494,3.416,3.416,0,0,1,2.484-1.91" transform="translate(-11.683 -56.463)" fill="#00bb19"/>
  <path id="Trazado_13960" data-name="Trazado 13960" d="M31.43,118.191l1.422,1.252-.737.839-2.506-2.208,3.92-4.46,1.086.956Z" transform="translate(-15.905 -60.823)" fill="#00bb19"/>
  <path id="Trazado_13961" data-name="Trazado 13961" d="M42.588,119.585l-1.812,3.056a1.18,1.18,0,0,0-.193.84.991.991,0,0,0,.515.64,1.015,1.015,0,0,0,.815.151,1.154,1.154,0,0,0,.651-.568l1.813-3.056,1.243.739-1.808,3.049a2.519,2.519,0,0,1-.977.984,2.164,2.164,0,0,1-1.2.249,2.85,2.85,0,0,1-1.236-.411,2.784,2.784,0,0,1-.939-.878,2.049,2.049,0,0,1-.329-1.16,2.647,2.647,0,0,1,.412-1.325l1.808-3.049Z" transform="translate(-21.027 -63.636)" fill="#00bb19"/>
  <rect id="Rectángulo_3778" data-name="Rectángulo 3778" width="5.94" height="1.443" transform="translate(23.079 63.449) rotate(-68.394)" fill="#00bb19"/>
  <path id="Trazado_13962" data-name="Trazado 13962" d="M61.144,127.81a2.658,2.658,0,0,1,.839,1.253,3.319,3.319,0,0,1-.658,3.031,2.648,2.648,0,0,1-1.289.793,3.463,3.463,0,0,1-1.678.015l-2.172-.474,1.262-5.8,2.173.473a3.456,3.456,0,0,1,1.523.713m-1.268,3.682a1.7,1.7,0,0,0,.716-1.144,1.586,1.586,0,0,0-1.325-2.064l-.67-.146-.733,3.374.669.146a1.744,1.744,0,0,0,1.342-.166" transform="translate(-30.21 -67.819)" fill="#00bb19"/>
  <path id="Trazado_13963" data-name="Trazado 13963" d="M72.106,134.549a2.906,2.906,0,0,1-1.132-1.062,3.2,3.2,0,0,1-.072-3.135,2.919,2.919,0,0,1,1.082-1.109,3.218,3.218,0,0,1,3.068-.07,2.858,2.858,0,0,1,1.124,1.058,3.246,3.246,0,0,1,.067,3.135,2.887,2.887,0,0,1-1.074,1.113,3.209,3.209,0,0,1-3.064.07m2.638-1.466a2.057,2.057,0,0,0-.058-2.509,1.462,1.462,0,0,0-1.147-.443,1.477,1.477,0,0,0-1.135.492,2.069,2.069,0,0,0,.058,2.517,1.472,1.472,0,0,0,1.156.443,1.455,1.455,0,0,0,1.126-.5" transform="translate(-37.929 -68.998)" fill="#00bb19"/>
  <path id="Trazado_13964" data-name="Trazado 13964" d="M92.7,127.1a1.084,1.084,0,0,0-.584-.276,1.508,1.508,0,0,0-.718.084,1.453,1.453,0,0,0-.911.806,2.039,2.039,0,0,0,.845,2.367,1.614,1.614,0,0,0,1.3.034,1.472,1.472,0,0,0,.761-.552,1.537,1.537,0,0,0,.252-.912l-1.732.6-.35-1.007,2.97-1.035.442,1.271a2.836,2.836,0,0,1-.184,1.13,2.891,2.891,0,0,1-.675,1.033,3.022,3.022,0,0,1-1.167.711,3.158,3.158,0,0,1-1.608.152,2.738,2.738,0,0,1-1.365-.658,3.388,3.388,0,0,1-1.029-2.961,2.748,2.748,0,0,1,.658-1.367,3.135,3.135,0,0,1,1.35-.878,3.036,3.036,0,0,1,1.866-.1,2.431,2.431,0,0,1,1.384,1.032Z" transform="translate(-47.82 -67.181)" fill="#00bb19"/>
  <path id="Trazado_13965" data-name="Trazado 13965" d="M105.541,124.939l-2.233-1.247-.294.184,1.188,1.9-1.225.767-3.146-5.037,2.057-1.288a2.67,2.67,0,0,1,1.145-.427,1.689,1.689,0,0,1,.984.178,1.878,1.878,0,0,1,.712.677,1.769,1.769,0,0,1,.277,1.074,1.8,1.8,0,0,1-.485,1.083l2.407,1.268Zm-3.07-1.931.76-.476a.821.821,0,0,0,.4-.481.739.739,0,0,0-.123-.572.713.713,0,0,0-.451-.346.818.818,0,0,0-.608.152l-.76.475Z" transform="translate(-53.701 -64.14)" fill="#00bb19"/>
  <path id="Trazado_13966" data-name="Trazado 13966" d="M116.615,115.742l-1.579,1.555.482,1-1.079,1.063-2.632-5.743L113,112.439l5.692,2.728-1.091,1.074Zm-1.048-.535-2.048-1.034,1.005,2.061Z" transform="translate(-60.149 -60.191)" fill="#00bb19"/>
  <path id="Trazado_13967" data-name="Trazado 13967" d="M119.981,100.966l.966.64-.869,1.312,3.982,2.641-.8,1.206-3.982-2.641-.868,1.312-.966-.64Z" transform="translate(-63.184 -54.022)" fill="#00bb19"/>
  <rect id="Rectángulo_3779" data-name="Rectángulo 3779" width="1.444" height="5.935" transform="translate(56.911 46.52) rotate(-64.494)" fill="#00bb19"/>
  <path id="Trazado_13968" data-name="Trazado 13968" d="M131.555,92.375a1.9,1.9,0,0,1-.841.6,1.71,1.71,0,0,1-1.05.016l.456-1.472a.744.744,0,0,0,.548-.069.736.736,0,0,0,.316-.434.8.8,0,0,0,.008-.529.5.5,0,0,0-.336-.3.488.488,0,0,0-.391.034,1.186,1.186,0,0,0-.334.277,5.884,5.884,0,0,0-.383.524,6.591,6.591,0,0,1-.617.792,1.723,1.723,0,0,1-.685.443,1.458,1.458,0,0,1-.942-.017,1.556,1.556,0,0,1-1.062-.958,2.873,2.873,0,0,1,.93-3.007,1.678,1.678,0,0,1,1.437-.227l-.463,1.5a.608.608,0,0,0-.494.068.744.744,0,0,0-.305.428.62.62,0,0,0,.008.446.5.5,0,0,0,.336.273.5.5,0,0,0,.508-.126,4.417,4.417,0,0,0,.581-.706,7.912,7.912,0,0,1,.632-.783,1.774,1.774,0,0,1,.677-.442,1.38,1.38,0,0,1,.909.007,1.712,1.712,0,0,1,.8.52,1.811,1.811,0,0,1,.409.911,2.573,2.573,0,0,1-.108,1.18,3.063,3.063,0,0,1-.547,1.053" transform="translate(-67.847 -47.042)" fill="#00bb19"/>
  <path id="Trazado_13969" data-name="Trazado 13969" d="M60.938,73.412a3.477,3.477,0,0,1-.91-.121A16.045,16.045,0,0,1,48.277,58.16V52.347a4.1,4.1,0,0,1,2.367-3.557l7.377-3.024a7.712,7.712,0,0,1,5.85,0l7.341,3.009a4.127,4.127,0,0,1,2.4,3.523c0,.018,0,.035,0,.053L73.6,58.14c0,.007,0,.013,0,.02A16.042,16.042,0,0,1,61.863,73.288a3.527,3.527,0,0,1-.925.123m.01-26.373a5.907,5.907,0,0,0-2.228.439l-7.338,3.007a2.225,2.225,0,0,0-1.259,1.908v5.746A14.2,14.2,0,0,0,60.519,71.509a1.66,1.66,0,0,0,.854,0A14.2,14.2,0,0,0,71.757,58.125l.013-5.753a2.267,2.267,0,0,0-1.3-1.907l-7.3-2.989a5.9,5.9,0,0,0-2.226-.438m11.733,11.1h0Z" transform="translate(-25.953 -24.031)" fill="#00bb19"/>
  <path id="Trazado_13970" data-name="Trazado 13970" d="M66.824,74.994a.919.919,0,0,1-.653-.271l-2.627-2.631a.924.924,0,1,1,1.306-1.307l1.974,1.977,6.365-6.372A.924.924,0,0,1,74.494,67.7l-7.018,7.026a.919.919,0,0,1-.653.271" transform="translate(-34.025 -35.285)" fill="#00bb19"/>
  <path id="Trazado_13971" data-name="Trazado 13971" d="M15.494,77.761a.822.822,0,1,1-.822-.823.822.822,0,0,1,.822.823" transform="translate(-7.423 -41.102)" fill="#150a44"/>
  <path id="Trazado_13972" data-name="Trazado 13972" d="M135.448,77.761a.822.822,0,1,1-.822-.823.822.822,0,0,1,.822.823" transform="translate(-71.989 -41.102)" fill="#150a44"/>
  <rect id="Rectángulo_3780" data-name="Rectángulo 3780" width="69.774" height="69.858" fill="none"/>
</svg>
