<svg id="shield-tick" xmlns="http://www.w3.org/2000/svg" width="20" height="20" viewBox="0 0 20 20">
  <path id="Vector" d="M5.9.194,1.742,1.76A2.892,2.892,0,0,0,0,4.269V10.46a4.051,4.051,0,0,0,1.442,2.867L5.025,16a3.793,3.793,0,0,0,4.283,0l3.583-2.675a4.051,4.051,0,0,0,1.442-2.867V4.269a2.893,2.893,0,0,0-1.742-2.517L8.433.194A4.237,4.237,0,0,0,5.9.194Z" transform="translate(2.842 1.665)" fill="none" stroke="#01ac4c" stroke-linecap="round" stroke-linejoin="round" stroke-width="1.6"/>
  <path id="Vector-2" data-name="Vector" d="M0,2.242,1.342,3.583,4.925,0" transform="translate(7.542 7.65)" fill="none" stroke="#01ac4c" stroke-linecap="round" stroke-linejoin="round" stroke-width="1.6"/>
  <path id="Vector-3" data-name="Vector" d="M0,0H20V20H0Z" transform="translate(20 20) rotate(180)" fill="none" opacity="0"/>
</svg>
