<svg id="shopping-bag" xmlns="http://www.w3.org/2000/svg" width="16" height="16" viewBox="0 0 16 16">
  <path id="Vector" d="M3.28,0h4.8c2.267,0,2.493,1.06,2.647,2.353l.6,5c.193,1.64-.313,2.98-2.647,2.98H2.686c-2.34,0-2.847-1.34-2.647-2.98l.6-5C.786,1.06,1.013,0,3.28,0Z" transform="translate(2.32 4.333)" fill="none" stroke="#606a82" stroke-linecap="round" stroke-linejoin="round" stroke-width="1.6"/>
  <path id="Vector-2" data-name="Vector" d="M0,4V1.667A1.575,1.575,0,0,1,1.667,0h2A1.575,1.575,0,0,1,5.333,1.667V4" transform="translate(5.333 1.333)" fill="none" stroke="#606a82" stroke-linecap="round" stroke-linejoin="round" stroke-width="1.6"/>
  <path id="Vector-3" data-name="Vector" d="M8.273,0H0" transform="translate(5.333 11.354)" fill="none" stroke="#606a82" stroke-linecap="round" stroke-linejoin="round" stroke-width="1.6"/>
  <path id="Vector-4" data-name="Vector" d="M0,0H16V16H0Z" fill="none" opacity="0"/>
</svg>
