<svg id="transmition" xmlns="http://www.w3.org/2000/svg" width="16" height="16" viewBox="0 0 16 16">
  <path id="Vector" d="M0,0H8" transform="translate(2.667 12) rotate(-90)" fill="none" stroke="#606a82" stroke-linecap="round" stroke-linejoin="round" stroke-width="1.6"/>
  <path id="Vector-2" data-name="Vector" d="M2.667,1.333A1.333,1.333,0,1,1,1.333,0,1.333,1.333,0,0,1,2.667,1.333Z" transform="translate(6.667 4) rotate(-90)" fill="none" stroke="#606a82" stroke-linecap="round" stroke-linejoin="round" stroke-width="1.6"/>
  <path id="Vector-3" data-name="Vector" d="M2.667,1.333A1.333,1.333,0,1,1,1.333,0,1.333,1.333,0,0,1,2.667,1.333Z" transform="translate(1.333 4) rotate(-90)" fill="none" stroke="#606a82" stroke-linecap="round" stroke-linejoin="round" stroke-width="1.6"/>
  <path id="Vector-4" data-name="Vector" d="M2.667,1.333A1.333,1.333,0,1,1,1.333,0,1.333,1.333,0,0,1,2.667,1.333Z" transform="translate(12 4) rotate(-90)" fill="none" stroke="#606a82" stroke-linecap="round" stroke-linejoin="round" stroke-width="1.6"/>
  <path id="Vector-5" data-name="Vector" d="M2.667,1.333A1.333,1.333,0,1,1,1.333,0,1.333,1.333,0,0,1,2.667,1.333Z" transform="translate(6.667 14.667) rotate(-90)" fill="none" stroke="#606a82" stroke-linecap="round" stroke-linejoin="round" stroke-width="1.6"/>
  <path id="Vector-6" data-name="Vector" d="M2.667,1.333A1.333,1.333,0,1,1,1.333,0,1.333,1.333,0,0,1,2.667,1.333Z" transform="translate(1.333 14.667) rotate(-90)" fill="none" stroke="#606a82" stroke-linecap="round" stroke-linejoin="round" stroke-width="1.6"/>
  <path id="Vector-7" data-name="Vector" d="M0,0H8" transform="translate(8 12) rotate(-90)" fill="none" stroke="#606a82" stroke-linecap="round" stroke-linejoin="round" stroke-width="1.6"/>
  <path id="Vector-8" data-name="Vector" d="M0,0V8.615a1.768,1.768,0,0,0,2,2H4.667" transform="translate(2.719 8.667) rotate(-90)" fill="none" stroke="#606a82" stroke-linecap="round" stroke-linejoin="round" stroke-width="1.6"/>
  <path id="Vector-9" data-name="Vector" d="M0,0H16V16H0Z" fill="none" opacity="0"/>
</svg>
